<?xml version="1.0" encoding="utf-8"?>



<svg version="1.1" id="Layer_1" xmlns="http://www.w3.org/2000/svg" xmlns:xlink="http://www.w3.org/1999/xlink" x="0px" y="0px" viewBox="0 0 440 100" enable-background="new 0 0 440 100" xml:space="preserve">



<!--Swing icons by Szabolcs MARKUS -->

<g id="LRswing01">
 <path d="M11.82 20.19L79.47 20.19L89.52 0.45L0.49 0.45L11.82 20.19Z" id="b1emm3MC4"></path>
 <path d="M10.1 49.55C13.05 41.94 16 34.34 18.95 26.73" id="a7S7xSusJg" stroke-width="6"></path>
 <path d="M27.09 52.21L29.09 27.89" id="f1vNNZy7hu" stroke-width="6"></path>
 <path d="M45.01 52.21L45.01 27.89" id="g1GckXwmbS" stroke-width="6"></path>
 <path d="M66.6 52.21L64.6 27.89" id="c3JTIKMbnP" stroke-width="6"></path>
 <path d="M83.59 49.55C80.64 41.94 77.69 34.34 74.74 26.73" id="azjXSlc0" stroke-width="6"></path>
</g>

<g id="LRswing02">
 <path d="M11.82 20.19L79.47 20.19L89.52 0.45L0.49 0.45L11.82 20.19Z" id="b1emm3MC4"></path>
 <path d="M10.1 49.55C13.05 41.94 16 34.34 18.95 26.73" id="a7S7xSusJg" stroke-width="6"></path>
</g>

<g id="LRswing03">
<path d="M11.82 20.19L79.47 20.19L89.52 0.45L0.49 0.45L11.82 20.19Z" id="iFGlyZgY8"></path>
<path d="M27.09 52.21L29.09 27.89" id="f1vNNZy7hu" stroke-width="6"></path>
</g>

<g id="LRswing04">
<path d="M11.82 20.19L79.47 20.19L89.52 0.45L0.49 0.45L11.82 20.19Z" id="b2qFA3CKh"></path>
<path d="M45.01 52.21L45.01 27.89" id="g1GckXwmbS" stroke-width="6"></path>
</g>

<g id="LRswing05">
<path d="M11.82 20.19L79.47 20.19L89.52 0.45L0.49 0.45L11.82 20.19Z" id="b2qFA3CKh2"></path>
<path d="M66.6 52.21L64.6 27.89" id="c3JTIKMbnP" stroke-width="6"></path>
</g>

<g id="LRswing06">
<path d="M11.82 20.19L79.47 20.19L89.52 0.45L0.49 0.45L11.82 20.19Z" id="b2qFA3CKh3"></path>
<path d="M83.59 49.55C80.64 41.94 77.69 34.34 74.74 26.73" id="azjXSlc0" stroke-width="6"></path>
</g>

<g id="SwingUDfix2">
<path d="M34.31 42.44L34.31 9.3L34.31 76.73L34.31 42.44Z" id="a4yIt6IWG" stroke-width="6"></path>
<path d="M10.06 7.32L25.05 16.85L10.06 7.32Z" id="lAHgOyq4s" stroke-width="3"></path>
</g>

<g id="SwingUDfix3">
<path d="M34.31 42.44L34.31 9.3L34.31 76.73L34.31 42.44Z" id="asYijTiij" stroke-width="6"></path>
<path d="M8.74 23.91L25.05 31.46L8.74 23.91Z" id="m3T54DFXlh" stroke-width="3"></path>
</g>

<g id="SwingUDfix4">
<path d="M34.31 42.44L34.31 9.3L34.31 76.73L34.31 42.44Z" id="asYijTiij" stroke-width="6"></path>
<path d="M8.74 43.01L25.58 43.01L8.74 43.01Z" id="iAtDEhC4v" stroke-width="3"></path>
</g>

<g id="SwingUDfix5">
<path d="M34.31 42.44L34.31 9.3L34.31 76.73L34.31 42.44Z" id="asYijTiij2" stroke-width="6"></path>
<path d="M8.74 63.77L27.47 56.22L8.74 63.77Z" id="a44pyatRd5" stroke-width="3"></path>
</g>

<g id="SwingUDfix6">
<path d="M34.31 42.44L34.31 9.3L34.31 76.73L34.31 42.44Z" id="asYijTiij2" stroke-width="6"></path>
<path d="M10.06 78.03L24.97 69.36L10.06 78.03Z" id="c1GiQwg0Zt" stroke-width="3"></path>
</g>

<g id="SwingUDS7">
<path d="M34.31 41.29L34.31 17.7L34.31 65.71L34.31 41.29Z" id="g568GW6Wkk" stroke-width="1"></path>
<path d="M10.63 75.55L25.04 66.8L25.04 16.91L10.24 8.12L10.63 75.55Z" id="b232ih4Zm5" fill-opacity="0"></path>
<path d="M10.24 17.66L25.04 24.45L10.24 17.66Z" id="a63BIwmuEo"></path>
<path d="M10.37 29.1L25.17 29.1L10.37 29.1Z" id="a1iZmyV0uV"></path>
<path d="M10.37 41.49L25.17 41.84L10.37 41.49Z" id="a24Px61A6P"></path>
<path d="M10.37 53.51L25.17 53.85L10.37 53.51Z" id="ei7GQV6Tr"></path>
<path d="M25.17 59.23L10.67 64.63L25.17 59.23Z" id="b1dZP0eTAP"></path>
<path d="M10.67 75.43L25.04 66.76L25.04 59.42L10.56 64.77L10.67 75.43Z" id="cYst0AD0A"></path>
<path d="M10.67 75.43L25.04 66.76L25.04 59.42L10.56 64.77L10.67 75.43Z" id="a2HL6Bpdt5"></path>
</g>

<g id="SwingUDS8">
<path d="M35.31 44.47L35.31 20.88L35.31 68.88L35.31 44.47Z" id="adu1vkJA1" stroke-width="1"></path>
<path d="M11.63 78.72L26.04 69.97L26.04 20.09L11.24 11.3L11.63 78.72Z" id="a8jJ8kOZ1r" fill-opacity="0"></path>
<path d="M11.24 20.84L26.04 27.62L11.24 20.84Z" id="a1zvYfd818"></path>
<path d="M11.37 32.27L26.17 32.27L11.37 32.27Z" id="b6J7yj3vu"></path>
<path d="M11.37 44.67L26.17 45.01L11.37 44.67Z" id="d2uxR17K7P"></path>
<path d="M11.37 56.68L26.17 57.03L11.37 56.68Z" id="b4C2VQWgvF"></path>
<path d="M26.17 62.41L11.67 67.81L26.17 62.41Z" id="l3LWSYYez0"></path>
<path d="M26.04 62.41L26.04 57.03L11.56 56.68L11.56 67.81L26.04 62.41Z" id="bdSHyfmMF"></path>
<path d="M26.04 62.41L26.04 57.03L11.56 56.68L11.56 67.81L26.04 62.41Z" id="aqyQnT2DD"></path>
<path d="M11.67 78.61L26.04 69.94L26.04 62.59L11.56 67.95L11.67 78.61Z" id="a2KQNL2Jw7"></path>
<path d="M11.67 78.61L26.04 69.94L26.04 62.59L11.56 67.95L11.67 78.61Z" id="aoyDv7NLH"></path>
</g>

<g id="SwingUDS9">
<path d="M35.31 44.47L35.31 20.88L35.31 68.88L35.31 44.47Z" id="adu1vkJA12" stroke-width="1"></path>
<path d="M11.63 78.59L26.04 69.84L26.04 19.95L11.24 11.17L11.63 78.59Z" id="a4mFMn8dvA" fill-opacity="0"></path>
<path d="M11.24 20.7L26.04 27.49L11.24 20.7Z" id="a1fgBlBv4B"></path>
<path d="M11.37 32.14L26.17 32.14L11.37 32.14Z" id="b2VxrC5Nt8"></path
><path d="M11.37 44.53L26.17 44.88L11.37 44.53Z" id="aSilfa7C8"></path>
<path d="M11.37 56.55L26.17 56.9L11.37 56.55Z" id="a1zeeG8lcY"></path>
<path d="M26.17 62.27L11.67 67.68L26.17 62.27Z" id="a3FPYPKnKL"></path>
<path d="M25.88 56.72L25.88 32.31L11.37 32.31L11.66 56.51L25.88 56.72Z" id="dfddTRLjn"></path>
<path d="M25.88 56.72L25.88 32.31L11.37 32.31L11.66 56.51L25.88 56.72Z" id="dGd5jynC6"></path>
</g>

<g id="SwingUDS10">
<path d="M35.31 44.47L35.31 20.88L35.31 68.88L35.31 44.47Z" id="adu1vkJA13" stroke-width="1"></path>
<path d="M11.63 78.59L26.04 69.85L26.04 19.98L11.24 11.2L11.63 78.59Z" id="b5NKXHxvFu" fill-opacity="0"></path>
<path d="M11.24 20.73L26.04 27.51L11.24 20.73Z" id="cm1oaCBrS"></path>
<path d="M11.37 32.16L26.17 32.16L11.37 32.16Z" id="a1kjIeCFpW"></path>
<path d="M11.37 44.55L26.17 44.89L11.37 44.55Z" id="a6HGSDcIRl"></path>
<path d="M11.37 56.56L26.17 56.91L11.37 56.56Z" id="b1cK6rj0f4"></path>
<path d="M26.17 62.28L11.67 67.68L26.17 62.28Z" id="d2RKqxjeP"></path>
<path d="M26.04 27.51L26.3 19.82L11.24 11.17L11.5 20.73L26.04 27.51Z" id="a3zxOALTm0"></path>
<path d="M26.04 27.51L26.3 19.82L11.24 11.17L11.5 20.73L26.04 27.51Z" id="caOcBCnvO"></path>
<path d="M26.04 32.16L11.37 32.16L11.24 20.93L26.04 27.65L26.04 32.16Z" id="d4m2llETCH"></path>
<path d="M26.04 32.16L11.37 32.16L11.24 20.93L26.04 27.65L26.04 32.16Z" id="aGJY2VEFe"></path>
</g>

<g id="SwingUDS11">
<path d="M35.31 44.47L35.31 20.88L35.31 68.88L35.31 44.47Z" id="adu1vkJA4" stroke-width="1"></path>
<path d="M11.63 78.59L26.04 69.85L26.04 19.98L11.24 11.2L11.63 78.59Z" id="b5NKXHxvFu" fill-opacity="0"></path>
<path d="M11.24 20.74L26.04 27.52L11.24 20.74Z" id="a1Y9LFc66a"></path>
<path d="M11.37 32.16L26.17 32.16L11.37 32.16Z" id="c4zoCaI8et"></path>
<path d="M11.37 44.55L26.17 44.89L11.37 44.55Z" id="a4Lx1MtGs"></path>
<path d="M11.37 56.56L26.17 56.9L11.37 56.56Z" id="bau58LDhKt"></path>
<path d="M26.17 62.27L11.67 67.67L26.17 62.27Z" id="dIcuLi5z1"></path>
<path d="M26.04 27.52L26.3 19.83L11.24 11.18L11.5 20.74L26.04 27.52Z" id="b3Aam021IP"></path>
<path d="M26.04 27.52L26.3 19.83L11.24 11.18L11.5 20.74L26.04 27.52Z" id="ajU3n2F0M"></path>
</g>

<g id="SwingUDfull">
<path d="M40.9 19.61L40.9 76.23L40.9 47.43L40.9 19.61Z" id="aiJzkPuWV" fill-opacity="0"></path>
<path d="M40.9 19.61L40.9 76.23L40.9 47.43L40.9 19.61Z" id="f1AqNWhOBz" fill-opacity="0"></path>
<path d="M30.86 77.36L30.86 18.52L14.84 8.16L15.25 87.67L30.86 77.36Z" id="b1QR60gzvv"></path>
<path d="M30.86 77.36L30.86 18.52L14.84 8.16L15.25 87.67L30.86 77.36Z" id="bf3vUaH2G" fill-opacity="0"></path>
<path d="M14.84 26.77L30.86 26.77L14.84 26.77Z" id="auVeZw8Q9"></path>
<path d="M14.84 26.77L30.86 26.77L14.84 26.77Z" id="a2TUurXHbe" fill-opacity="0"></path>
<path d="M14.84 47.92L30.86 47.92L14.84 47.92Z" id="fL98x82nZ"></path>
<path d="M14.84 47.92L30.86 47.92L14.84 47.92Z" id="gk36hTKj5" fill-opacity="0"></path>
<path d="M14.84 69.35L30.86 69.35L14.84 69.35Z" id="bbSAVhfD3"></path>
<path d="M14.84 69.35L30.86 69.35L14.84 69.35Z" id="b517wYTkw" fill-opacity="0"></path>
</g>

<!--Thanks www.svgrepo.com for this icon -->

<g id="GreeCool">
<path d="M58.76,44.64l-6.9-6.9l-0.58,8.81l7.48,7.48V44.64L58.76,44.64z M32.17,35.1l-12.8,0.48c-1.49,0.05-2.74-1.11-2.79-2.6 c-0.05-1.49,1.11-2.74,2.6-2.79l7.78-0.29l-8.81-8.81c-1.06-1.06-1.06-2.77,0-3.83c1.06-1.06,2.77-1.06,3.83,0l8.67,8.67l0.12-7.29 c0.02-1.49,1.25-2.68,2.74-2.66c1.49,0.02,2.68,1.25,2.66,2.74l-0.2,12.52l11.23,11.23l0.64-9.78c0.07-1.19,1.1-2.1,2.29-2.02 c0.55,0.03,1.03,0.27,1.39,0.63l0,0l7.22,7.22V20.82l-9-8.72c-1.07-1.04-1.09-2.75-0.05-3.82c1.04-1.07,2.75-1.09,3.82-0.05 l5.23,5.07V2.71c0-1.5,1.21-2.71,2.71-2.71c1.5,0,2.71,1.21,2.71,2.71v10.77l5.71-5.29c1.09-1.02,2.8-0.96,3.82,0.14 c1.02,1.09,0.96,2.8-0.14,3.82l-9.39,8.71v16.89l7.51-6.58c0.9-0.79,2.26-0.69,3.05,0.2c0.36,0.41,0.53,0.92,0.53,1.42h0.01v10.92 l13.07-13.07l-0.2-12.52c-0.02-1.49,1.17-2.72,2.66-2.74c1.49-0.02,2.72,1.17,2.74,2.66l0.12,7.29l7.49-7.49 c1.06-1.06,2.77-1.06,3.83,0c1.06,1.06,1.06,2.77,0,3.83l-7.62,7.62l7.78,0.29c1.49,0.05,2.66,1.3,2.6,2.79 c-0.05,1.49-1.3,2.66-2.79,2.6l-12.8-0.48L80.31,46.34l9.28,0.61c1.19,0.07,2.1,1.1,2.02,2.29c-0.03,0.55-0.27,1.03-0.63,1.39l0,0 l-7.28,7.28h18.34l8.72-9c1.04-1.07,2.75-1.09,3.82-0.05c1.07,1.04,1.09,2.75,0.05,3.82l-5.07,5.23h10.58 c1.5,0,2.71,1.21,2.71,2.71c0,1.5-1.21,2.71-2.71,2.71H109.4l5.29,5.71c1.02,1.09,0.96,2.8-0.14,3.82 c-1.09,1.02-2.8,0.96-3.82-0.14l-8.71-9.39H84.59l6.53,7.45c0.79,0.9,0.69,2.26-0.2,3.05c-0.41,0.36-0.92,0.53-1.42,0.53v0.01 H79.11L92.23,87.5l12.52-0.2c1.49-0.02,2.72,1.17,2.74,2.66c0.02,1.49-1.17,2.72-2.66,2.74l-7.29,0.12l7.49,7.49 c1.06,1.06,1.06,2.77,0,3.83c-1.06,1.06-2.77,1.06-3.83,0l-7.62-7.62l-0.29,7.78c-0.05,1.49-1.3,2.66-2.79,2.6 c-1.49-0.05-2.66-1.3-2.6-2.79l0.48-12.8l-12.4-12.4l-0.64,9.78c-0.07,1.19-1.1,2.1-2.29,2.02c-0.55-0.03-1.03-0.27-1.39-0.63l0,0 l-7.47-7.47v17.72l9.39,8.71c1.09,1.02,1.15,2.73,0.14,3.82c-1.02,1.09-2.73,1.15-3.82,0.14l-5.71-5.29v12.45 c0,1.5-1.21,2.71-2.71,2.71c-1.5,0-2.71-1.21-2.71-2.71v-12.26l-5.23,5.07c-1.07,1.04-2.78,1.02-3.82-0.05 c-1.04-1.07-1.02-2.78,0.05-3.82l9-8.72V83.86l-7.26,6.36c-0.9,0.79-2.26,0.69-3.05-0.2c-0.36-0.41-0.53-0.92-0.53-1.42h-0.01 v-9.85L35.94,90.71l0.48,12.8c0.05,1.49-1.11,2.74-2.6,2.79c-1.49,0.05-2.74-1.11-2.79-2.6l-0.29-7.78l-8.81,8.81 c-1.06,1.06-2.77,1.06-3.83,0c-1.06-1.06-1.06-2.77,0-3.83l8.67-8.67l-7.29-0.12c-1.49-0.02-2.68-1.25-2.66-2.74 c0.02-1.49,1.25-2.68,2.74-2.66l12.52,0.2l11.8-11.8l-10.28-0.68c-1.19-0.07-2.1-1.1-2.02-2.29c0.03-0.55,0.27-1.03,0.63-1.39l0,0 l7.4-7.41H22.54l-8.71,9.39c-1.02,1.09-2.73,1.15-3.82,0.14c-1.09-1.02-1.15-2.73-0.14-3.82l5.29-5.71H2.71 c-1.5,0-2.71-1.21-2.71-2.71c0-1.5,1.21-2.71,2.71-2.71h12.26l-5.07-5.23c-1.04-1.07-1.02-2.78,0.05-3.82 c1.07-1.04,2.78-1.02,3.82,0.05l8.72,9h15.99l-6.41-7.32c-0.79-0.9-0.69-2.26,0.2-3.05c0.41-0.36,0.92-0.53,1.42-0.53v-0.01h10.38 L32.17,35.1L32.17,35.1z M48.41,51.35h-9.95l5.76,6.57h10.76L48.41,51.35L48.41,51.35z M71.91,74.84l-7.73-7.73v9.39l7.15,7.15 L71.91,74.84L71.91,74.84z M68.07,63.34l6.7,6.7h9.95l-5.87-6.7H68.07L68.07,63.34z M45.73,63.34l-7.09,7.09l9.31,0.61l7.71-7.71 H45.73L45.73,63.34z M68.73,57.92h8.85l6.97-6.97l-8.31-0.55L68.73,57.92L68.73,57.92z M52.25,74.4v9.41l6.51-5.71V67.89 L52.25,74.4L52.25,74.4z M64.18,54.81l6.76-6.76V37.57l-6.76,5.93V54.81L64.18,54.81z"></path>
</g>

<!--Thanks uxwing.com for these icons -->

<g id="GreeFan">
<path class="st0" d="M89.84,122.88H19c0.68-8.61,5.08-15.16,11.38-19.62c-5.37-2.65-10.25-6.16-14.44-10.36 C6.09,83.05,0,69.45,0,54.42c0-15.03,6.09-28.63,15.94-38.48C25.79,6.09,39.39,0,54.42,0C69.45,0,83.05,6.09,92.9,15.94 c9.85,9.85,15.94,23.45,15.94,38.48c0,15.03-6.09,28.63-15.94,38.48c-4.15,4.15-8.97,7.64-14.28,10.28 C84.82,107.62,89.15,114.18,89.84,122.88L89.84,122.88z M58.75,42.7l0.15,0.02c0.32-0.41,0.66-0.82,1-1.22 c0.59-0.69,1.21-1.36,1.86-2.01c2.66-2.67,5.3-4.15,7.92-5.63c1.71-0.96,3.41-1.91,5.02-3.16c0.58-0.45,1-0.91,1.3-1.38 c0.51-0.82,0.64-1.7,0.49-2.58c-0.17-0.99-0.69-2-1.41-2.92c-0.79-1.02-1.82-1.93-2.93-2.63c-0.99-0.63-2.1-1.15-3.24-1.58 c-1.16-0.44-2.37-0.78-3.57-1.07c-1.1-0.26-2.18-0.44-3.25-0.54c-1.11-0.11-2.21-0.16-3.31-0.15c-3.72,0.03-6.81,0.73-9.24,1.95 c-2.22,1.12-3.89,2.68-5,4.58c-1.12,1.93-1.68,4.23-1.66,6.79c0.03,3.29,1.01,7,2.99,10.93c0.34,0.67,0.75,1.25,1.22,1.76 c0.18,0.2,0.37,0.39,0.57,0.57c2.09-1.44,4.63-2.29,7.36-2.29C56.31,42.15,57.57,42.35,58.75,42.7L58.75,42.7z M53.24,46.2 c-1.64,0.28-3.1,0.91-4.38,1.87c-0.16,0.14-0.32,0.29-0.47,0.44c-1.69,1.69-2.74,4.03-2.74,6.62s1.05,4.93,2.74,6.62 c0.35,0.35,0.72,0.67,1.12,0.95c0.23,0.15,0.46,0.29,0.7,0.43l0,0c0.1,0.06,0.2,0.13,0.29,0.2c1.34,0.74,2.88,1.16,4.51,1.16 c2.59,0,4.93-1.05,6.62-2.74c1.69-1.69,2.74-4.03,2.74-6.62s-1.05-4.93-2.74-6.62c-1.03-1.03-2.3-1.82-3.73-2.29 C56.2,45.96,54.64,45.96,53.24,46.2L53.24,46.2z M44.99,46.88c-0.2-0.19-0.39-0.39-0.58-0.6c-0.68-0.75-1.29-1.6-1.77-2.55 c-2.23-4.43-3.34-8.69-3.37-12.52c-0.03-3.22,0.7-6.14,2.14-8.62c1.46-2.51,3.63-4.56,6.49-6c2.91-1.47,6.54-2.3,10.84-2.33 c1.24-0.01,2.47,0.04,3.69,0.16c1.26,0.13,2.5,0.33,3.72,0.61c1.32,0.31,2.68,0.7,4.02,1.21c1.35,0.51,2.67,1.13,3.89,1.9 c1.45,0.91,2.81,2.12,3.87,3.48c1.06,1.37,1.83,2.92,2.11,4.52c0.3,1.71,0.04,3.46-1,5.1c-0.52,0.82-1.22,1.6-2.15,2.32 c-1.85,1.43-3.65,2.45-5.45,3.46c-2.41,1.36-4.84,2.72-7.13,5.02c-0.58,0.58-1.14,1.19-1.67,1.82c-0.14,0.16-0.28,0.33-0.41,0.49 c0.71,0.47,1.36,1.01,1.96,1.61c1.9,1.9,3.22,4.4,3.65,7.18c0.34-0.04,0.68-0.07,1.03-0.08c1.01-0.04,2.04,0.03,3.09,0.27 c4.84,1.12,8.82,2.99,11.79,5.41c2.49,2.03,4.27,4.46,5.26,7.17c1,2.72,1.18,5.7,0.46,8.81c-0.74,3.19-2.41,6.51-5.13,9.83l0,0 c-0.78,0.96-1.61,1.87-2.48,2.73c-0.9,0.88-1.84,1.71-2.85,2.46c-1.08,0.81-2.25,1.61-3.5,2.32c-1.26,0.72-2.59,1.34-3.95,1.78 c-1.63,0.53-3.42,0.8-5.14,0.74c-1.73-0.06-3.42-0.46-4.83-1.27c-1.52-0.87-2.7-2.19-3.3-4.03c-0.3-0.91-0.44-1.95-0.4-3.12 c0.08-2.33,0.45-4.37,0.83-6.41c0.5-2.72,1-5.46,0.7-8.7c-0.07-0.78-0.18-1.59-0.33-2.44c-0.06-0.37-0.13-0.74-0.21-1.1 c-1.22,0.38-2.51,0.58-3.86,0.58c-1.62,0-3.17-0.3-4.61-0.84c-0.08,0.19-0.16,0.38-0.25,0.57c-0.42,0.91-0.96,1.8-1.66,2.63 c-3.2,3.79-6.68,6.47-10.2,8c-2.95,1.29-5.92,1.77-8.77,1.41c-2.88-0.36-5.61-1.56-8.06-3.63c-2.49-2.11-4.68-5.11-6.39-9.05 c-0.5-1.14-0.93-2.29-1.3-3.46c-0.37-1.19-0.67-2.41-0.89-3.67c-0.23-1.33-0.4-2.73-0.46-4.17c-0.06-1.44,0-2.9,0.22-4.32 c0.27-1.7,0.85-3.42,1.68-4.92c0.85-1.52,1.97-2.83,3.33-3.71c1.47-0.95,3.18-1.4,5.09-1.09c0.96,0.15,1.95,0.5,2.97,1.07 c2.03,1.13,3.68,2.4,5.32,3.67c2.19,1.69,4.39,3.38,7.42,4.59c0.75,0.3,1.53,0.58,2.32,0.83c0.5,0.16,1.01,0.3,1.54,0.44 C42.75,50.37,43.69,48.47,44.99,46.88L44.99,46.88z M68.12,56.72c-0.24,1.72-0.81,3.38-1.73,4.96c-0.98,1.69-2.33,3.28-4.07,4.77 c0.11,0.52,0.21,1.04,0.3,1.55c0.15,0.86,0.27,1.77,0.36,2.72c0.35,3.74-0.2,6.71-0.74,9.68c-0.35,1.92-0.7,3.83-0.77,5.88 c-0.02,0.73,0.06,1.36,0.24,1.9c0.3,0.92,0.9,1.58,1.66,2.02c0.87,0.5,1.97,0.75,3.15,0.79c1.29,0.04,2.66-0.17,3.91-0.58 c1.13-0.37,2.23-0.88,3.29-1.48c1.07-0.61,2.12-1.32,3.1-2.06c0.9-0.68,1.73-1.4,2.5-2.15c0.79-0.78,1.53-1.59,2.22-2.44l0,0l0,0 c2.36-2.88,3.8-5.7,4.41-8.35c0.56-2.42,0.43-4.71-0.33-6.78c-0.76-2.08-2.17-3.98-4.16-5.6c-2.55-2.08-6.03-3.71-10.31-4.69 c-0.72-0.17-1.44-0.22-2.14-0.19C68.7,56.66,68.41,56.69,68.12,56.72L68.12,56.72z M47.17,65.46c-1.4-1-2.6-2.25-3.58-3.77 c-1.05-1.63-1.84-3.56-2.37-5.79c-0.5-0.14-1.01-0.28-1.51-0.44c-0.86-0.27-1.72-0.58-2.59-0.92c-3.49-1.4-5.89-3.25-8.28-5.09 c-1.54-1.19-3.08-2.37-4.87-3.37c-0.64-0.36-1.24-0.57-1.79-0.66c-0.96-0.15-1.82,0.07-2.56,0.55c-0.85,0.55-1.57,1.41-2.14,2.44 c-0.63,1.13-1.07,2.44-1.28,3.73c-0.19,1.17-0.23,2.39-0.18,3.61c0.05,1.23,0.21,2.48,0.42,3.7c0.19,1.09,0.45,2.16,0.78,3.2 c0.33,1.06,0.72,2.09,1.16,3.09c1.49,3.41,3.34,5.98,5.42,7.74c1.89,1.6,3.98,2.52,6.17,2.8c2.22,0.28,4.55-0.11,6.9-1.13 c3.01-1.31,6.05-3.67,8.89-7.03c0.47-0.56,0.85-1.17,1.14-1.81c0.13-0.27,0.24-0.54,0.33-0.82L47.17,65.46L47.17,65.46z M90.35,18.49C81.15,9.3,68.45,3.61,54.42,3.61c-14.03,0-26.73,5.69-35.93,14.88C9.3,27.69,3.61,40.39,3.61,54.42 c0,14.03,5.69,26.73,14.88,35.93c9.19,9.19,21.9,14.88,35.93,14.88c14.03,0,26.73-5.69,35.93-14.88 c9.19-9.19,14.88-21.9,14.88-35.93C105.23,40.39,99.54,27.69,90.35,18.49L90.35,18.49z"></path>
</g>

<g id="GreeHeat">
<path class="st0" d="M74.55,87.92C79,30.42,47.85,21.5,30.8,0c14.28,29.8-5.84,41.03-20.23,58.47 C-1.27,72.82-4.48,93.69,7.78,108.76c2.87,3.53,6.58,6.6,11.19,9.23c4.11,2.35,8.4,3.99,12.85,4.89 C3.75,99.78,43.88,91.82,36.1,72.91c13.15,10.77,30.53,33.41,15.24,49.21c26.53-6.45,34.95-25.51,31.16-48.1 C80.88,80.98,78.9,86.14,74.55,87.92L74.55,87.92z"></path>
</g>

<g id="GreeEco">
<path class="st0" d="M8.78,53.09c-2.23,6.64-2.3,17.87-0.73,25.01c1.81,8.22,5.76,16.07,11.07,22.11l7.6-27.6 c0.13-0.47,0.35-0.93,0.7-1.27c0.39-0.38,0.88-0.62,1.5-0.62h16.64h17.82h20.44c0.57,0,1.02,0.2,1.39,0.53 c0.04,0.03,0.08,0.06,0.11,0.1c0.34,0.34,0.56,0.8,0.69,1.27l6.94,25.19c2.27-3.17,4.2-6.73,5.71-10.69 c1.44-3.77,2.45-7.58,3.01-11.36c1.12-7.5,0.53-20.31,0.53-27.82c-8.07-0.97-11.41-4.85-11.41-12.76v-4.47l0,0h-1.44 c-1.03,0-1.87-0.83-1.87-1.86v-2.16c0-1.03,0.84-1.87,1.87-1.87h5.68V13.39c0-1.62,1.32-2.95,2.95-2.95l0,0 c1.62,0,2.94,1.32,2.94,2.95v11.43h8.66V13.39c0-1.62,1.31-2.95,2.95-2.95l0,0c1.62,0,2.95,1.32,2.95,2.95v11.43h5.52 c1.03,0,1.87,0.84,1.87,1.87v2.16c0,1.03-0.84,1.86-1.87,1.86h-1.15v4.02c0,7.66-3.43,12.37-11.41,13.13 c0,7.73,0.45,20.66-0.63,28.28c-0.61,4.38-1.76,8.8-3.42,13.15c-2.62,6.86-6.38,12.69-10.93,17.47 c-7.36,7.73-16.8,12.7-26.87,14.78c-10.05,2.07-20.73,1.27-30.64-2.52c-6.64-2.55-12.95-6.43-18.48-11.69 C9.99,100.23,4.38,90.07,2.03,79.39c-1.88-8.58-1.67-21.38,1.34-29.43l-0.04-0.09C-9.5,17.58,17.74,12.15,34.44,0 C48.18,34.06,34.14,50.35,8.78,53.09L8.78,53.09L8.78,53.09z M30.91,65.37c-0.96,0-1.75-0.79-1.75-1.74c0-0.96,0.79-1.75,1.75-1.75 h4.46c0.96,0,1.75,0.79,1.75,1.74c0,0.96-0.79,1.75-1.75,1.75H30.91L30.91,65.37L30.91,65.37L30.91,65.37L30.91,65.37z M33.63,52.47c-0.84-0.49-1.11-1.53-0.65-2.37c0.49-0.84,1.53-1.11,2.37-0.65l3.88,2.23c0.84,0.49,1.11,1.53,0.65,2.37 c-0.49,0.84-1.53,1.11-2.37,0.65L33.63,52.47L33.63,52.47L33.63,52.47L33.63,52.47L33.63,52.47L33.63,52.47z M56.34,48.4 c4.3,0,8.2,1.75,11.01,4.56c2.81,2.81,4.56,6.72,4.56,11.01c0,1.29-0.16,2.55-0.45,3.75H41.23c-0.3-1.2-0.45-2.46-0.45-3.75 c0-4.3,1.75-8.2,4.56-11.01C48.18,50.15,52.07,48.4,56.34,48.4L56.34,48.4L56.34,48.4L56.34,48.4L56.34,48.4z M77.71,50.07 c0.84-0.49,1.9-0.21,2.39,0.63c0.47,0.84,0.19,1.9-0.65,2.37l-3.88,2.23c-0.84,0.49-1.9,0.21-2.37-0.63 c-0.49-0.84-0.21-1.9,0.63-2.37L77.71,50.07L77.71,50.07L77.71,50.07L77.71,50.07L77.71,50.07z M81.82,62.6 c0.96,0,1.75,0.79,1.75,1.75c0,0.96-0.79,1.75-1.75,1.75h-4.46c-0.96,0-1.75-0.79-1.75-1.75c0-0.96,0.79-1.75,1.75-1.75H81.82 L81.82,62.6L81.82,62.6L81.82,62.6L81.82,62.6z M42.46,42.66c-0.49-0.84-0.21-1.9,0.6-2.37c0.84-0.49,1.9-0.21,2.37,0.63l2.23,3.88 c0.49,0.84,0.21,1.9-0.63,2.37c-0.84,0.49-1.9,0.21-2.37-0.63L42.46,42.66L42.46,42.66L42.46,42.66L42.46,42.66L42.46,42.66z M54.99,38.55c0-0.96,0.77-1.75,1.75-1.75c0.96,0,1.75,0.79,1.75,1.75v4.46c0,0.96-0.79,1.74-1.75,1.74 c-0.96,0-1.75-0.79-1.75-1.74V38.55L54.99,38.55L54.99,38.55L54.99,38.55L54.99,38.55z M67.9,41.26c0.49-0.84,1.53-1.11,2.37-0.65 c0.84,0.49,1.12,1.53,0.65,2.37l-2.23,3.88c-0.49,0.84-1.53,1.11-2.37,0.65c-0.84-0.49-1.11-1.53-0.65-2.37L67.9,41.26L67.9,41.26 L67.9,41.26L67.9,41.26L67.9,41.26L67.9,41.26z M25.63,106.27c3.9,3.01,8.12,5.35,12.52,7.04c0.37,0.14,0.75,0.28,1.13,0.41h14.27 v-7.45H25.63L25.63,106.27z M71.88,113.72c4.73-1.71,9.18-4.2,13.14-7.45H59.18v7.45H71.88L71.88,113.72z"/><path class="st1" d="M9.51,44.99l0.06,0.04c13.1-15.81,17.91-16.53,21.32-35.49C25.88,20.85,11.67,30.09,9.51,44.99L9.51,44.99 L9.51,44.99z"></path>
<path class="st1" d="M49.21,87.86l-0.59,4.3h13.91l-0.43-4.3H49.21L49.21,87.86L49.21,87.86z M63.27,72.64l0.55,5.56h10.37 l-1.02-5.56H63.27L63.27,72.64L63.27,72.64z M75.87,72.64l1.02,5.56h8.1l-1.52-5.56H75.87L75.87,72.64L75.87,72.64z M85.72,80.87 h-8.35l0.78,4.3h8.75L85.72,80.87L85.72,80.87L85.72,80.87z M87.65,87.86h-9l0.79,4.3h9.4L87.65,87.86L87.65,87.86L87.65,87.86z M89.58,94.83h-9.65l1.47,8.02h10.39L89.58,94.83L89.58,94.83L89.58,94.83z M78.69,102.85l-1.47-8.02H65.47l0.79,8.02H78.69 L78.69,102.85L78.69,102.85z M63.58,102.85l-0.8-8.02H48.26l-1.1,8.02H63.58L63.58,102.85L63.58,102.85z M44.47,102.85l1.1-8.02 h-11.1l-1.86,8.02H44.47L44.47,102.85L44.47,102.85z M29.87,102.85l1.86-8.02h-8.58l-2.21,8.02H29.87L29.87,102.85L29.87,102.85z M23.89,92.15h8.47l0.99-4.3h-8.28L23.89,92.15L23.89,92.15L23.89,92.15z M25.82,85.16h8.15l1-4.3H27L25.82,85.16L25.82,85.16 L25.82,85.16z M27.74,78.19h7.86l1.29-5.56h-7.62L27.74,78.19L27.74,78.19L27.74,78.19z M39.63,72.64l-1.29,5.56h9.5l0.76-5.56 H39.63L39.63,72.64L39.63,72.64z M51.27,72.64c0,0.05,0,0.1-0.01,0.15l-0.75,5.41h10.62l-0.55-5.56H51.27L51.27,72.64L51.27,72.64 L51.27,72.64z M64.08,80.87l0.42,4.3h10.95l-0.79-4.3H64.08L64.08,80.87L64.08,80.87z M37.71,80.87l-1,4.3h10.17l0.58-4.3H37.71 L37.71,80.87L37.71,80.87z M50.16,80.87l-0.59,4.3h12.26l-0.43-4.3H50.16L50.16,80.87L50.16,80.87z M64.77,87.86l0.43,4.3h11.53 l-0.79-4.3H64.77L64.77,87.86L64.77,87.86z M36.09,87.86l-0.99,4.3h10.84l0.58-4.3H36.09L36.09,87.86L36.09,87.86z"></path>
</g>

<g id="GreeAir">
 <g fill="none" stroke-miterlimit="10" stroke-width="4">
  <path d="m6 20s8.5-3.6 26-1 26-2 26-2"></path>
  <path d="m6 46s8.5-3.6 26-1 26-2 26-2"></path>
  <path d="m6 33s8.5-3.6 26-1 26-2 26-2"></path>
 </g>
</g>

<g id="GreeHealth">
<path d="M65.46,19.57c-0.68,0.72-1.36,1.45-2.2,2.32l-2.31,2.41l-2.4-2.33c-0.71-0.69-1.43-1.4-2.13-2.09 c-7.42-7.3-13.01-12.8-24.52-12.95c-0.45-0.01-0.93,0-1.43,0.02c-6.44,0.23-12.38,2.6-16.72,6.65c-4.28,4-7.01,9.67-7.1,16.57 c-0.01,0.43,0,0.88,0.02,1.37c0.69,19.27,19.13,36.08,34.42,50.01c2.95,2.69,5.78,5.27,8.49,7.88l11.26,10.85l14.15-14.04 c2.28-2.26,4.86-4.73,7.62-7.37c4.69-4.5,9.91-9.49,14.77-14.52c3.49-3.61,6.8-7.24,9.61-10.73c2.76-3.42,5.02-6.67,6.47-9.57 c2.38-4.76,3.13-9.52,2.62-13.97c-0.5-4.39-2.23-8.49-4.82-11.99c-2.63-3.55-6.13-6.49-10.14-8.5C96.5,7.29,91.21,6.2,85.8,6.82 C76.47,7.9,71.5,13.17,65.46,19.57L65.46,19.57z M60.77,14.85C67.67,7.54,73.4,1.55,85.04,0.22c6.72-0.77,13.3,0.57,19.03,3.45 c4.95,2.48,9.27,6.1,12.51,10.47c3.27,4.42,5.46,9.61,6.1,15.19c0.65,5.66-0.29,11.69-3.3,17.69c-1.7,3.39-4.22,7.03-7.23,10.76 c-2.95,3.66-6.39,7.44-10,11.17C97.2,74.08,91.94,79.12,87.2,83.66c-2.77,2.65-5.36,5.13-7.54,7.29L63.2,107.28l-2.31,2.29 l-2.34-2.25l-13.6-13.1c-2.49-2.39-5.37-5.02-8.36-7.75C20.38,71.68,0.81,53.85,0.02,31.77C0,31.23,0,30.67,0,30.09 c0.12-8.86,3.66-16.18,9.21-21.36c5.5-5.13,12.97-8.13,21.01-8.42c0.55-0.02,1.13-0.03,1.74-0.02C46,0.48,52.42,6.63,60.77,14.85 L60.77,14.85z">
</path>
</g>

<g id="onoff"
>

<path d="M53.114,2.457C53.114,1.1,54.643,0,56.527,0s3.413,1.1,3.413,2.457v44.377c0,1.357-1.528,2.457-3.413,2.457 s-3.413-1.1-3.413-2.457V2.457L53.114,2.457z M73.615,19.661c-1.768-0.648-2.675-2.605-2.026-4.373 c0.647-1.767,2.604-2.674,4.372-2.026c10.962,4.015,20.339,11.339,26.924,20.766c6.409,9.174,10.17,20.32,10.17,32.325 c0,15.606-6.329,29.738-16.559,39.969c-10.23,10.229-24.362,16.559-39.969,16.559s-29.739-6.329-39.969-16.559 C6.329,96.091,0,81.959,0,66.353c0-12.005,3.76-23.151,10.169-32.325c6.585-9.427,15.962-16.751,26.924-20.766 c1.767-0.647,3.725,0.26,4.372,2.026c0.648,1.767-0.259,3.725-2.026,4.373c-9.659,3.538-17.913,9.978-23.698,18.259 c-5.619,8.044-8.916,17.846-8.916,28.433c0,13.723,5.564,26.148,14.559,35.143c8.995,8.995,21.42,14.56,35.143,14.56 s26.148-5.564,35.143-14.56c8.995-8.994,14.559-21.42,14.559-35.143c0-10.587-3.297-20.389-8.916-28.433 C91.527,29.638,83.274,23.198,73.615,19.661L73.615,19.661z"></path>
</g>




<g id="automatic">
<path d="M66.605,9.676c-0.791-0.791-1.718-1.181-2.792-1.181c-1.073,0-2.013,0.39-2.791,1.181l-4.255,4.241 c-1.141-0.738-2.348-1.383-3.61-1.96c-1.261-0.577-2.55-1.072-3.852-1.502V3.931c0-1.1-0.375-2.026-1.141-2.791 C47.401,0.375,46.475,0,45.374,0h-8.187c-1.047,0-1.958,0.375-2.75,1.14c-0.778,0.765-1.168,1.691-1.168,2.791v5.973 c-1.368,0.321-2.697,0.724-3.973,1.221c-1.287,0.496-2.508,1.061-3.663,1.691l-4.711-4.644c-0.738-0.778-1.637-1.181-2.724-1.181 c-1.075,0-2,0.403-2.792,1.181l-5.73,5.745c-0.791,0.791-1.181,1.718-1.181,2.79c0,1.074,0.39,2.014,1.181,2.792l4.242,4.255 c-0.738,1.14-1.382,2.348-1.959,3.608c-0.578,1.262-1.073,2.552-1.504,3.853H3.933c-1.102,0-2.028,0.375-2.792,1.14 C0.376,33.121,0,34.047,0,35.148v8.187c0,1.045,0.376,1.959,1.14,2.751c0.764,0.777,1.691,1.167,2.792,1.167h5.971 c0.322,1.367,0.724,2.696,1.222,3.971c0.498,1.289,1.061,2.537,1.691,3.744l-4.644,4.63c-0.779,0.739-1.181,1.638-1.181,2.726 c0,1.073,0.402,2,1.181,2.792l5.745,5.811c0.791,0.738,1.717,1.102,2.792,1.102c1.072,0,2.011-0.363,2.791-1.102l4.254-4.321 c1.14,0.737,2.349,1.381,3.61,1.96c1.262,0.575,2.55,1.073,3.852,1.502v6.523c0,1.1,0.376,2.025,1.14,2.789 c0.765,0.767,1.692,1.143,2.792,1.143h8.186c1.047,0,1.959-0.376,2.751-1.143c0.777-0.764,1.167-1.689,1.167-2.789v-5.973 c1.369-0.321,2.697-0.724,3.972-1.222c1.289-0.496,2.538-1.061,3.744-1.691l4.63,4.645c0.739,0.778,1.65,1.181,2.753,1.181 c1.112,0,2.025-0.402,2.765-1.181l5.811-5.744c0.738-0.793,1.102-1.719,1.102-2.792s-0.363-2.013-1.102-2.791l-4.321-4.255 c0.738-1.141,1.382-2.348,1.96-3.609c0.575-1.261,1.072-2.551,1.502-3.852h6.523c1.1,0,2.025-0.378,2.789-1.141 c0.766-0.766,1.142-1.691,1.142-2.792v-8.186c0-1.047-0.376-1.958-1.142-2.752c-0.764-0.778-1.689-1.167-2.789-1.167h-5.973 c-0.322-1.315-0.725-2.63-1.222-3.931c-0.496-1.316-1.061-2.55-1.691-3.706l4.645-4.709c0.778-0.738,1.181-1.638,1.181-2.724 c0-1.075-0.402-2-1.181-2.792L66.605,9.676L66.605,9.676z M111.918,53.649c-0.506-0.355-1.044-0.479-1.627-0.376 c-0.583,0.101-1.057,0.401-1.401,0.904l-1.908,2.702c-0.688-0.292-1.402-0.526-2.144-0.721c-0.737-0.194-1.484-0.343-2.231-0.451 l-0.616-3.538c-0.105-0.596-0.395-1.063-0.884-1.406c-0.486-0.343-1.024-0.459-1.621-0.354l-4.441,0.774 c-0.566,0.099-1.025,0.39-1.383,0.879c-0.35,0.487-0.475,1.027-0.369,1.625l0.564,3.238c-0.713,0.303-1.395,0.648-2.037,1.038 c-0.654,0.392-1.263,0.812-1.828,1.264l-2.995-2.073c-0.476-0.352-0.999-0.484-1.59-0.383c-0.583,0.103-1.046,0.407-1.402,0.904 l-2.564,3.659c-0.354,0.504-0.479,1.044-0.377,1.623c0.102,0.585,0.402,1.057,0.905,1.404l2.703,1.907 c-0.292,0.687-0.527,1.402-0.721,2.144c-0.195,0.738-0.343,1.484-0.452,2.231l-3.538,0.616c-0.596,0.104-1.063,0.396-1.406,0.884 c-0.344,0.486-0.458,1.025-0.354,1.621l0.773,4.441c0.099,0.566,0.388,1.026,0.88,1.383c0.487,0.35,1.027,0.474,1.624,0.369 l3.239-0.564c0.304,0.713,0.648,1.394,1.038,2.039c0.392,0.652,0.815,1.274,1.272,1.869l-2.081,2.952 c-0.353,0.475-0.485,0.999-0.383,1.59c0.102,0.583,0.406,1.047,0.904,1.402l3.665,2.607c0.499,0.325,1.036,0.436,1.618,0.334 c0.583-0.101,1.059-0.389,1.41-0.862l1.899-2.746c0.688,0.293,1.403,0.528,2.144,0.721c0.738,0.194,1.484,0.343,2.23,0.45 l0.618,3.54c0.104,0.597,0.396,1.063,0.883,1.404c0.486,0.344,1.025,0.46,1.621,0.356l4.439-0.775 c0.569-0.1,1.028-0.389,1.386-0.879c0.349-0.488,0.474-1.025,0.368-1.624l-0.565-3.241c0.713-0.303,1.396-0.646,2.04-1.037 c0.651-0.393,1.274-0.814,1.87-1.27l2.951,2.081c0.475,0.352,1.008,0.483,1.604,0.378c0.604-0.104,1.061-0.409,1.388-0.901 l2.609-3.665c0.324-0.5,0.435-1.036,0.332-1.618c-0.101-0.583-0.387-1.059-0.86-1.41l-2.748-1.899 c0.294-0.688,0.528-1.403,0.722-2.144c0.194-0.738,0.342-1.484,0.452-2.232l3.537-0.616c0.597-0.104,1.063-0.394,1.405-0.883 c0.344-0.488,0.459-1.024,0.355-1.621l-0.775-4.441c-0.099-0.567-0.389-1.025-0.879-1.384c-0.487-0.351-1.027-0.473-1.624-0.369 l-3.239,0.565c-0.299-0.684-0.642-1.358-1.035-2.017c-0.395-0.667-0.816-1.283-1.267-1.85l2.074-2.995 c0.353-0.475,0.484-0.998,0.38-1.59c-0.101-0.583-0.405-1.045-0.904-1.401L111.918,53.649L111.918,53.649z M99.16,64.929 c1.071-0.188,2.118-0.162,3.147,0.075c1.025,0.246,1.953,0.657,2.777,1.231c0.825,0.582,1.523,1.316,2.101,2.198 c0.573,0.889,0.95,1.865,1.139,2.936c0.187,1.072,0.16,2.119-0.076,3.15c-0.246,1.023-0.655,1.949-1.233,2.776 c-0.582,0.823-1.314,1.522-2.196,2.1c-0.889,0.573-1.865,0.951-2.937,1.139c-1.07,0.186-2.117,0.159-3.148-0.077 c-1.025-0.246-1.95-0.655-2.777-1.232c-0.822-0.582-1.522-1.314-2.1-2.196c-0.572-0.889-0.952-1.866-1.138-2.937 c-0.188-1.07-0.162-2.117,0.075-3.148c0.246-1.025,0.657-1.951,1.231-2.778c0.583-0.821,1.316-1.521,2.198-2.099 C97.114,65.494,98.09,65.116,99.16,64.929L99.16,64.929z M40.262,24.224c2.201,0,4.28,0.417,6.252,1.248 c1.961,0.846,3.666,1.986,5.115,3.421c1.435,1.449,2.575,3.156,3.421,5.113c0.833,1.973,1.248,4.054,1.248,6.254 c0,2.201-0.415,4.282-1.248,6.254c-0.846,1.959-1.986,3.666-3.421,5.115c-1.449,1.436-3.154,2.575-5.115,3.421 c-1.972,0.833-4.051,1.248-6.252,1.248s-4.282-0.415-6.255-1.248c-1.958-0.846-3.664-1.985-5.112-3.421 c-1.437-1.449-2.577-3.155-3.423-5.115c-0.831-1.972-1.248-4.053-1.248-6.254c0-2.2,0.417-4.281,1.248-6.254 c0.846-1.958,1.986-3.664,3.423-5.113c1.448-1.435,3.154-2.576,5.112-3.421C35.979,24.641,38.061,24.224,40.262,24.224 L40.262,24.224z"></path>

</g>



</svg> 